<?xml version="1.0" standalone="no"?>
<!DOCTYPE svg PUBLIC "-//W3C//DTD SVG 20010904//EN"
 "http://www.w3.org/TR/2001/REC-SVG-20010904/DTD/svg10.dtd">
<svg version="1.0" xmlns="http://www.w3.org/2000/svg"
 width="3464.000000pt" height="3464.000000pt" viewBox="0 0 3464.000000 3464.000000"
 preserveAspectRatio="xMidYMid meet">

<g transform="translate(0.000000,3464.000000) scale(0.100000,-0.100000)"
fill="#000000" stroke="none">
<path d="M20567 29145 c-9 -8 -29 -18 -46 -21 -28 -6 -30 -9 -37 -70 -3 -36
-4 -78 -1 -94 10 -48 53 -107 86 -118 17 -6 31 -15 31 -21 0 -5 13 -12 30 -16
16 -4 39 -18 49 -31 11 -14 40 -41 66 -60 25 -19 45 -41 45 -48 0 -7 9 -21 20
-31 26 -23 90 -119 111 -165 9 -19 23 -41 32 -48 25 -21 67 -98 67 -124 0 -13
9 -34 20 -48 11 -14 20 -37 20 -52 0 -15 16 -56 35 -91 19 -35 35 -75 35 -90
0 -14 5 -29 11 -32 6 -4 7 -19 4 -35 -4 -16 -2 -37 3 -47 14 -26 38 -164 48
-273 3 -30 9 -64 14 -75 34 -72 60 -205 41 -205 -5 0 -22 10 -38 23 -61 50
-203 136 -240 146 -22 6 -48 21 -59 32 -26 30 -135 109 -150 109 -6 0 -32 16
-58 36 -26 20 -76 49 -111 65 -35 16 -66 33 -69 38 -4 5 -32 19 -63 31 -31 12
-75 34 -98 49 -23 15 -54 31 -68 35 -15 3 -27 10 -27 15 0 12 -105 71 -126 71
-9 0 -31 8 -48 19 -17 10 -48 24 -69 31 -20 6 -64 29 -96 51 -55 37 -120 64
-216 92 -22 7 -56 25 -76 40 -20 15 -41 27 -45 25 -24 -6 -102 17 -127 38 -16
13 -35 24 -42 24 -7 0 -35 10 -62 21 -26 12 -70 25 -98 30 -30 5 -56 16 -65
28 -8 11 -33 23 -55 27 -22 4 -52 15 -67 26 -25 18 -71 33 -173 59 -22 6 -49
16 -61 24 -11 7 -46 18 -77 24 -31 5 -73 19 -94 29 -21 11 -62 25 -92 31 -29
6 -65 20 -78 31 -14 11 -32 20 -40 20 -8 0 -33 9 -56 20 -23 12 -62 23 -87 26
-55 6 -115 21 -155 39 -16 7 -55 21 -85 30 -30 10 -70 24 -88 31 -18 8 -43 14
-57 14 -13 0 -70 11 -127 25 -57 14 -125 25 -151 25 -26 0 -58 7 -70 14 -15
10 -54 16 -119 17 -63 1 -107 7 -125 16 -15 8 -68 19 -118 24 -49 4 -119 13
-155 19 -113 19 -222 29 -251 23 -16 -3 -35 0 -43 6 -8 7 -56 14 -110 16 -52
2 -101 7 -108 11 -7 4 -26 7 -42 6 -16 -2 -43 2 -60 7 -27 9 -228 20 -451 26
-229 6 -1105 6 -1115 0 -6 -4 -93 -9 -193 -12 -100 -2 -207 -9 -237 -15 -108
-21 -378 -55 -485 -62 -22 -1 -50 -8 -62 -14 -12 -7 -48 -12 -80 -12 -41 0
-67 -6 -88 -20 -20 -13 -47 -20 -82 -20 -28 0 -55 -4 -58 -10 -3 -5 -28 -10
-55 -10 -27 0 -51 -4 -55 -9 -3 -5 -31 -12 -63 -16 -31 -4 -93 -17 -137 -30
-44 -13 -118 -33 -165 -45 -47 -12 -98 -28 -115 -37 -16 -8 -46 -19 -65 -23
-19 -5 -48 -13 -65 -19 -16 -5 -64 -20 -105 -31 -41 -12 -104 -35 -140 -50
-36 -16 -78 -32 -95 -36 -16 -4 -61 -22 -100 -40 -38 -18 -89 -38 -111 -44
-23 -5 -47 -16 -53 -24 -10 -12 -60 -38 -141 -75 -14 -6 -32 -15 -40 -19 -37
-22 -108 -52 -134 -57 -17 -4 -43 -16 -60 -28 -36 -26 -60 -40 -141 -79 -33
-17 -74 -42 -92 -57 -42 -35 -118 -81 -133 -81 -7 0 -43 -20 -79 -43 -36 -24
-77 -50 -91 -57 -24 -12 -60 -41 -127 -100 -17 -16 -42 -32 -55 -35 -13 -4
-44 -25 -69 -46 -26 -22 -51 -39 -56 -39 -5 0 -47 -31 -92 -70 -46 -38 -86
-70 -90 -70 -7 0 -107 -73 -131 -96 -8 -8 -26 -24 -40 -35 -105 -83 -384 -341
-468 -432 -14 -15 -50 -46 -79 -68 -29 -23 -53 -47 -53 -54 0 -7 -49 -64 -110
-127 -180 -185 -185 -191 -220 -238 -19 -25 -56 -70 -82 -101 -26 -30 -48 -61
-48 -67 0 -7 -12 -22 -26 -35 -49 -41 -176 -191 -196 -232 -12 -22 -30 -51
-40 -65 -11 -14 -38 -54 -62 -90 -23 -36 -56 -81 -74 -100 -17 -19 -32 -40
-32 -47 0 -7 -15 -30 -34 -50 -35 -40 -76 -113 -76 -136 0 -8 -11 -22 -25 -31
-13 -9 -32 -31 -41 -49 -9 -17 -33 -54 -54 -82 -21 -27 -41 -62 -45 -77 -4
-15 -13 -32 -21 -39 -8 -6 -19 -30 -25 -53 -6 -22 -16 -48 -23 -56 -7 -8 -29
-44 -51 -80 -21 -36 -46 -74 -55 -85 -9 -11 -27 -47 -39 -80 -12 -33 -28 -67
-36 -75 -8 -9 -25 -49 -39 -89 -14 -40 -34 -82 -45 -92 -11 -11 -25 -38 -31
-61 -7 -22 -20 -57 -31 -77 -10 -20 -19 -43 -19 -53 0 -9 -12 -31 -26 -48 -32
-37 -64 -98 -64 -120 0 -8 -8 -31 -18 -50 -10 -19 -24 -55 -31 -80 -7 -25 -22
-64 -33 -87 -11 -23 -17 -50 -14 -61 6 -19 -21 -91 -49 -126 -8 -11 -15 -28
-15 -38 0 -10 -13 -47 -30 -81 -16 -35 -30 -80 -30 -100 0 -20 -9 -51 -20 -69
-13 -21 -20 -51 -20 -81 0 -27 -7 -61 -14 -75 -37 -68 -58 -133 -66 -202 -4
-41 -16 -100 -25 -130 -10 -30 -19 -70 -20 -88 -2 -18 -11 -42 -20 -52 -12
-13 -16 -29 -12 -47 3 -15 -1 -48 -8 -73 -13 -42 -29 -143 -41 -270 -3 -30
-13 -63 -22 -73 -13 -15 -14 -24 -2 -70 10 -44 10 -58 -1 -78 -7 -13 -13 -58
-14 -99 -1 -42 -4 -81 -8 -87 -26 -42 -19 -1011 8 -1065 9 -18 11 -48 8 -88
-4 -39 0 -83 11 -128 9 -38 18 -100 20 -139 2 -39 9 -79 15 -91 6 -11 11 -43
11 -71 0 -51 10 -103 36 -195 8 -26 14 -62 14 -80 0 -17 7 -40 15 -50 8 -11
12 -29 9 -43 -4 -12 1 -41 10 -63 9 -22 16 -51 16 -63 0 -12 9 -40 21 -61 11
-22 25 -60 29 -85 14 -75 49 -191 66 -216 9 -13 13 -29 9 -35 -3 -5 5 -34 18
-63 13 -28 32 -77 42 -107 9 -30 36 -95 60 -145 24 -49 49 -106 56 -125 7 -19
20 -45 29 -57 9 -12 25 -43 35 -70 10 -26 31 -60 46 -75 17 -15 29 -37 29 -51
0 -14 19 -53 43 -87 23 -34 50 -76 61 -93 10 -18 31 -47 47 -65 16 -18 29 -38
29 -44 0 -6 17 -34 38 -62 22 -28 47 -67 57 -86 10 -19 37 -60 60 -90 22 -30
51 -71 62 -90 12 -19 36 -45 52 -58 17 -12 37 -38 45 -57 8 -19 20 -35 26 -35
16 0 121 -111 134 -142 7 -15 27 -38 46 -50 19 -13 40 -34 46 -46 19 -39 57
-73 114 -103 72 -39 123 -76 133 -97 5 -9 36 -31 70 -48 44 -21 63 -37 65 -52
3 -18 -1 -22 -25 -22 -16 0 -34 5 -40 11 -14 14 -48 -3 -64 -32 -9 -18 -17
-20 -51 -15 -33 5 -45 3 -62 -13 -12 -11 -46 -29 -76 -41 -30 -12 -69 -32 -87
-46 -17 -13 -38 -24 -46 -24 -15 0 -67 -54 -67 -70 0 -16 -32 -40 -54 -40 -25
0 -102 -75 -108 -105 -2 -11 -12 -21 -24 -23 -33 -5 -65 -46 -71 -91 -6 -43
-15 -54 -65 -80 -23 -11 -35 -26 -41 -51 -5 -19 -22 -49 -38 -67 -20 -23 -29
-44 -29 -68 0 -24 -6 -37 -20 -45 -11 -6 -20 -16 -20 -23 0 -7 -9 -29 -20 -50
-11 -20 -20 -49 -20 -64 0 -16 -13 -48 -30 -73 -16 -25 -32 -65 -35 -90 -4
-25 -13 -61 -21 -80 -8 -19 -18 -62 -23 -95 -5 -33 -15 -80 -21 -105 -28 -112
-31 -132 -19 -164 9 -26 9 -38 -5 -64 -22 -43 -23 -234 -1 -252 8 -7 15 -21
15 -31 0 -10 5 -21 11 -24 32 -20 31 -90 -2 -98 -17 -5 -19 -13 -15 -82 6
-100 16 -165 29 -190 6 -11 18 -63 27 -115 17 -96 21 -104 74 -123 5 -2 3 -19
-4 -39 -12 -32 -11 -42 2 -70 9 -18 21 -49 28 -68 32 -91 43 -116 56 -131 8
-8 14 -25 14 -36 0 -20 60 -145 84 -173 7 -8 25 -40 41 -70 24 -49 53 -96 144
-234 14 -22 38 -47 53 -55 15 -9 32 -28 37 -42 5 -14 29 -46 53 -70 25 -24 59
-64 77 -89 45 -63 337 -340 358 -340 10 0 45 -25 77 -55 33 -30 64 -55 69 -55
5 0 26 -13 46 -28 20 -16 58 -42 84 -58 27 -16 65 -39 85 -51 61 -37 164 -83
186 -83 7 0 20 -8 28 -17 13 -15 15 -51 14 -220 -1 -138 -6 -207 -14 -215 -7
-7 -8 -17 -1 -29 11 -21 14 -336 5 -444 -3 -38 -6 -81 -6 -95 3 -168 -5 -309
-20 -360 -5 -19 -10 -55 -10 -80 -1 -25 -7 -56 -15 -70 -8 -14 -14 -39 -15
-57 0 -18 -7 -58 -16 -90 -32 -115 -36 -139 -38 -185 0 -26 -7 -53 -13 -59 -7
-7 -13 -20 -13 -29 0 -9 -7 -25 -15 -36 -8 -10 -15 -32 -15 -47 0 -15 -12 -51
-26 -80 -30 -58 -41 -90 -54 -157 -5 -25 -22 -82 -39 -128 -20 -53 -31 -102
-31 -135 0 -47 -3 -54 -35 -80 -19 -15 -35 -37 -35 -47 0 -19 -18 -66 -46
-123 -8 -16 -14 -39 -14 -51 0 -13 -8 -34 -19 -47 -36 -47 -89 -165 -100 -224
-8 -41 -20 -68 -39 -90 -30 -31 -56 -93 -67 -156 -5 -25 -15 -41 -32 -50 -26
-14 -63 -85 -63 -121 0 -11 -20 -39 -45 -63 -34 -33 -46 -54 -51 -85 -4 -23
-15 -50 -25 -59 -25 -23 -69 -107 -69 -131 0 -11 -11 -27 -24 -36 -14 -8 -32
-35 -42 -59 -9 -24 -25 -52 -35 -61 -11 -9 -19 -26 -19 -36 0 -11 -7 -41 -16
-68 -12 -38 -22 -51 -45 -59 -16 -5 -29 -16 -29 -23 0 -12 -65 -113 -94 -148
-7 -8 -16 -30 -20 -48 -3 -19 -19 -50 -35 -70 -16 -21 -30 -46 -32 -56 -2 -10
-12 -23 -21 -27 -10 -5 -26 -13 -35 -17 -10 -5 -28 -29 -41 -53 -12 -24 -36
-58 -52 -74 -17 -17 -30 -34 -30 -38 0 -11 -43 -71 -57 -80 -7 -4 -13 -17 -13
-28 0 -10 -12 -29 -26 -42 -33 -28 -114 -134 -114 -148 0 -6 -17 -28 -37 -49
-85 -86 -212 -269 -213 -304 0 -11 -6 -27 -14 -35 -27 -32 -96 -173 -96 -197
0 -14 -7 -38 -16 -54 -29 -48 -14 -62 59 -57 34 2 82 10 106 16 44 12 45 11
68 -18 30 -38 83 -71 114 -71 19 0 216 -90 289 -132 8 -4 22 -11 30 -14 57
-20 85 -41 93 -71 9 -30 12 -31 77 -38 50 -5 74 -12 87 -27 24 -27 67 -48 96
-48 14 0 27 -6 30 -14 3 -7 23 -15 44 -18 21 -3 101 -36 178 -72 77 -37 152
-70 167 -73 15 -3 43 -21 62 -39 21 -21 45 -34 61 -34 14 0 43 -13 65 -29 22
-16 57 -32 77 -36 21 -4 45 -12 53 -19 8 -8 32 -16 54 -19 21 -3 46 -13 56
-22 9 -8 23 -15 32 -15 8 0 27 -9 41 -20 14 -11 34 -20 45 -20 11 0 25 -7 32
-15 7 -8 23 -15 36 -15 14 0 48 -13 77 -30 30 -16 59 -30 66 -30 7 0 26 -11
42 -24 16 -14 49 -28 74 -32 25 -3 48 -10 51 -15 3 -5 15 -9 27 -9 12 0 36 -9
52 -20 17 -11 47 -20 67 -20 29 0 42 -6 60 -30 18 -23 34 -32 65 -35 22 -2 60
-11 84 -20 24 -9 65 -22 91 -28 26 -7 53 -18 60 -25 6 -6 20 -12 30 -12 31 0
99 -42 109 -66 9 -25 33 -32 44 -14 11 18 73 10 121 -15 26 -14 56 -25 68 -25
34 -1 115 -25 128 -38 7 -7 24 -12 39 -12 16 0 47 -15 73 -35 27 -21 58 -35
74 -35 15 0 38 -7 51 -17 19 -12 28 -14 42 -5 14 9 21 8 33 -3 9 -9 34 -15 64
-15 31 0 54 -5 62 -14 6 -8 24 -16 38 -18 17 -2 31 -12 37 -26 8 -20 15 -23
43 -18 23 3 44 -2 68 -16 24 -14 51 -21 81 -19 26 1 53 -5 66 -14 12 -8 34
-15 49 -15 15 0 37 -4 50 -9 13 -6 57 -19 98 -31 41 -12 95 -31 119 -41 24
-11 67 -23 95 -26 28 -3 69 -14 92 -24 22 -10 47 -19 55 -19 8 0 31 -11 50
-26 29 -22 41 -24 81 -19 35 5 53 3 70 -9 12 -9 32 -16 43 -16 12 0 26 -5 32
-11 6 -6 51 -18 99 -26 48 -7 94 -19 101 -25 7 -6 32 -11 56 -12 28 -1 55 -10
82 -29 22 -15 53 -27 69 -27 16 0 44 -10 63 -21 33 -20 37 -21 74 -6 31 12 42
13 52 3 23 -22 116 -56 155 -56 49 0 108 -24 121 -49 12 -21 74 -33 169 -32
39 0 72 -8 119 -29 47 -22 81 -30 121 -30 37 0 66 -7 93 -22 37 -21 39 -21 58
-4 19 18 21 17 47 -3 20 -16 35 -20 56 -16 19 5 37 1 53 -9 34 -22 51 -20 91
10 22 17 34 35 34 50 0 13 16 53 35 88 19 36 35 73 35 83 0 10 16 51 35 92 19
40 35 81 35 91 0 23 12 51 49 115 17 28 30 59 30 71 1 11 8 29 16 40 8 10 15
29 15 41 0 13 11 44 25 70 48 95 75 160 80 197 2 21 9 43 14 50 5 6 14 31 21
55 6 24 22 60 35 80 12 20 26 61 29 91 4 30 16 78 27 105 12 28 27 64 33 80
30 72 39 102 41 140 1 22 7 52 13 67 6 15 8 42 5 62 -5 32 9 93 40 166 6 14
16 79 23 145 6 66 18 132 25 148 12 27 42 36 54 17 3 -6 19 -10 35 -10 16 0
32 -4 35 -10 3 -5 18 -10 32 -10 15 0 34 -7 43 -15 18 -17 282 -115 308 -115
9 0 26 -9 38 -21 17 -16 38 -22 92 -24 80 -3 130 -17 180 -52 20 -13 42 -21
49 -19 8 3 30 -3 51 -14 20 -11 49 -20 64 -20 15 0 45 -6 65 -14 21 -8 56 -17
78 -20 22 -3 60 -10 85 -16 25 -6 78 -16 119 -21 41 -5 82 -16 90 -23 10 -9
49 -17 101 -20 47 -3 141 -10 210 -17 106 -9 380 -16 485 -11 17 0 116 0 220
-1 111 -2 198 1 210 7 11 6 63 12 115 13 156 6 165 7 194 26 27 18 57 19 130
5 10 -2 23 5 30 17 16 29 28 35 48 24 10 -6 23 -7 28 -4 5 3 18 2 27 -3 24
-12 43 -4 43 18 0 25 17 35 35 20 8 -7 25 -10 37 -7 12 4 28 1 35 -5 10 -8 20
-8 39 1 14 6 33 11 42 11 9 0 30 7 46 15 15 8 45 15 65 15 20 0 45 7 55 15 11
8 34 15 52 15 18 0 45 5 61 11 15 6 55 15 88 19 43 7 65 15 78 31 9 12 27 23
40 25 37 4 120 24 131 32 6 4 27 12 46 17 23 7 40 21 48 39 13 25 15 26 31 12
29 -26 50 -19 101 34 35 36 55 49 76 50 90 0 160 20 179 50 3 5 20 10 37 10
16 0 58 15 92 33 33 18 79 38 101 46 52 18 65 29 65 56 0 36 10 54 26 48 8 -3
23 2 34 12 18 16 19 16 32 -4 17 -29 56 -27 69 2 12 27 104 77 141 77 26 0 45
24 28 35 -20 12 -10 27 14 21 15 -4 28 0 36 9 7 8 20 15 30 15 9 0 34 14 55
30 21 17 44 30 52 30 8 0 26 9 40 20 14 11 32 20 39 20 7 0 20 14 29 30 9 18
23 30 35 30 11 0 40 18 64 40 24 22 48 40 54 40 7 0 19 11 27 24 9 13 33 31
53 39 20 8 46 24 56 36 11 12 27 21 37 21 9 0 36 21 59 47 22 26 51 48 63 50
24 4 37 19 37 45 0 10 18 29 40 43 22 14 40 29 40 34 0 6 8 12 18 15 9 3 24
19 33 35 11 19 27 30 51 35 23 4 54 25 92 61 31 30 63 55 70 55 16 0 62 57 76
94 5 15 20 30 33 35 13 5 41 21 62 35 63 43 69 37 80 -79 3 -33 9 -76 14 -95
24 -97 42 -186 56 -289 9 -63 21 -125 26 -138 5 -13 9 -41 9 -61 0 -20 7 -46
15 -56 8 -11 15 -40 15 -64 0 -24 5 -53 12 -65 12 -21 21 -70 33 -172 4 -27
15 -70 25 -95 10 -25 27 -88 39 -140 28 -123 40 -168 55 -205 7 -16 14 -51 15
-77 1 -26 11 -71 22 -100 10 -29 19 -64 19 -78 1 -14 7 -36 15 -50 8 -14 15
-43 15 -65 0 -22 8 -58 18 -80 10 -22 23 -58 30 -80 34 -118 53 -194 56 -227
2 -21 8 -43 14 -50 16 -20 49 -128 57 -185 4 -29 15 -64 26 -77 10 -13 19 -33
19 -44 0 -12 5 -24 10 -27 6 -3 10 -16 10 -28 0 -25 23 -95 46 -138 l15 -29
84 5 c69 3 85 2 85 -10 0 -24 20 -27 38 -7 26 30 75 35 105 12 32 -25 47 -25
97 1 28 15 50 19 71 15 16 -3 50 0 74 6 35 10 49 9 69 -1 20 -11 31 -12 56 -1
28 11 33 11 54 -9 25 -23 57 -27 105 -10 24 8 35 8 46 -1 13 -10 19 -9 36 6
18 16 38 19 143 19 66 0 152 4 189 9 50 7 74 6 91 -4 20 -10 28 -9 50 5 19 13
35 15 58 10 48 -11 119 -9 238 5 58 6 134 13 170 14 36 2 100 11 142 21 l77
18 20 -24 c16 -19 22 -22 32 -12 7 7 24 13 37 13 13 0 33 5 44 11 19 10 62 19
176 35 36 6 46 3 63 -15 25 -26 49 -27 96 -1 21 11 45 20 53 20 8 0 23 7 32
14 21 15 135 13 151 -3 14 -14 50 -14 63 -1 6 6 53 13 105 15 153 8 174 11
219 32 33 17 53 20 96 16 43 -5 58 -2 74 12 12 11 28 15 43 11 24 -6 154 15
176 28 6 4 41 11 79 16 37 5 102 15 146 22 60 9 82 9 97 0 16 -10 28 -8 67 13
27 14 63 25 85 25 22 0 51 8 65 19 19 13 54 21 116 26 51 4 100 14 113 22 14
9 33 13 48 9 14 -4 33 -2 42 3 10 5 58 13 106 19 67 7 93 14 111 31 15 14 35
21 64 21 23 0 59 6 79 14 50 19 161 39 173 31 5 -3 31 6 59 20 27 15 76 30
108 36 109 17 140 26 172 48 23 17 40 21 62 17 16 -3 42 -9 59 -12 25 -5 31
-3 40 20 9 26 23 31 68 27 12 -1 36 7 51 19 16 11 41 20 54 20 14 0 32 8 39
18 8 12 26 19 48 19 69 0 185 16 205 28 20 12 63 26 142 45 24 6 51 19 60 29
22 23 132 51 198 51 42 0 52 4 75 32 23 27 33 32 63 30 26 -2 42 3 57 18 11
11 28 20 38 20 11 0 29 9 42 20 13 11 31 20 40 20 29 0 154 41 171 56 8 8 27
14 42 14 14 0 29 5 33 11 3 6 17 8 30 5 16 -4 53 7 116 38 51 24 110 46 131
49 20 3 49 15 64 27 23 18 35 20 74 15 44 -6 50 -4 86 27 45 40 83 58 123 58
16 0 44 9 63 20 24 14 43 19 62 14 21 -5 27 -3 32 15 5 19 10 21 52 15 39 -5
49 -3 65 15 11 12 24 21 29 21 6 0 20 8 31 19 49 43 152 82 229 86 42 2 56 8
78 33 15 16 42 33 60 37 42 9 81 29 98 49 8 9 29 16 51 16 24 0 43 7 55 20 10
11 28 20 41 20 12 0 34 4 49 10 14 5 47 12 73 14 36 4 52 12 72 35 17 20 38
31 65 35 22 4 64 10 94 14 40 6 60 15 75 34 12 15 36 28 58 32 22 4 42 15 48
26 7 12 26 22 50 26 21 4 47 15 56 25 9 11 27 19 39 19 12 0 30 9 40 21 15 16
26 19 55 14 33 -6 39 -3 64 30 29 38 81 65 127 65 18 0 43 14 72 39 25 21 57
41 70 45 14 3 29 15 32 27 6 17 12 19 48 14 40 -6 43 -4 57 27 14 31 48 47 43
21 -5 -24 19 -13 57 25 21 20 54 48 73 62 19 14 43 43 53 65 12 25 31 45 51
55 60 28 39 67 -77 144 -30 20 -60 36 -66 36 -6 0 -19 9 -29 20 -10 11 -28 20
-41 20 -13 0 -25 4 -29 9 -3 5 -30 15 -61 21 -31 7 -74 24 -97 40 -25 16 -69
33 -107 41 -36 6 -97 25 -137 41 -39 15 -82 28 -95 28 -13 0 -33 6 -44 14 -11
8 -49 20 -84 26 -35 6 -77 22 -94 35 -17 12 -42 26 -56 30 -14 4 -32 13 -40
21 -8 7 -35 17 -59 23 -25 5 -48 16 -53 25 -4 8 -30 22 -57 31 -27 9 -68 29
-90 46 -23 16 -44 29 -48 30 -5 0 -36 19 -69 42 -51 35 -101 68 -216 142 -8 6
-33 22 -54 36 -21 14 -51 29 -66 33 -16 4 -34 19 -43 36 -9 18 -23 30 -35 30
-12 0 -28 13 -40 33 -11 17 -37 44 -57 59 -59 44 -341 313 -471 451 -15 16
-53 47 -85 69 -32 21 -62 50 -67 62 -4 13 -22 36 -39 53 -16 17 -33 42 -37 57
-3 15 -25 40 -50 58 -26 18 -53 49 -65 75 -11 24 -40 59 -64 79 -25 20 -49 50
-55 69 -6 18 -22 41 -36 50 -65 42 -102 86 -109 127 -5 25 -18 53 -34 68 -14
15 -39 46 -54 69 -15 23 -39 46 -52 51 -24 9 -35 40 -15 40 6 0 10 4 10 10 0
10 -3 14 -70 91 -22 25 -40 53 -40 62 0 9 -13 31 -28 49 -15 18 -44 64 -63
102 -18 37 -42 74 -51 81 -10 6 -23 27 -30 46 -6 19 -27 59 -46 89 -53 82
-107 188 -126 247 -12 35 -28 60 -47 74 -22 15 -29 28 -29 54 0 21 -12 51 -35
85 -19 28 -46 81 -59 118 -13 37 -47 110 -74 163 -33 63 -48 104 -45 120 3 16
-5 36 -22 59 -14 19 -33 60 -42 90 -18 63 -48 123 -69 141 -8 6 -14 22 -14 34
0 12 -7 39 -15 58 -8 20 -15 48 -15 62 0 14 -9 33 -19 42 -11 9 -30 48 -42 87
-12 39 -28 85 -35 103 -8 17 -14 43 -14 57 0 14 -10 35 -22 46 -16 15 -22 30
-19 51 2 19 -9 54 -27 93 -16 33 -33 83 -37 110 -4 29 -18 64 -36 89 -23 31
-29 51 -28 81 3 58 -10 123 -27 137 -8 6 -14 23 -14 36 0 14 -9 36 -20 50 -11
15 -20 42 -21 62 0 47 -41 229 -68 306 -12 33 -33 71 -48 83 -26 23 -26 24 -9
53 17 29 17 29 -14 58 l-31 28 17 36 c16 34 16 39 2 69 -24 50 -47 136 -41
156 5 21 -22 133 -42 172 -8 16 -10 31 -5 41 6 11 1 27 -17 52 -23 33 -27 48
-29 125 -1 71 -7 97 -29 145 -22 45 -25 60 -16 71 15 17 1 78 -30 132 -14 25
-19 54 -19 103 0 54 -5 78 -25 113 -21 39 -26 62 -30 162 -3 64 -10 125 -15
134 -19 33 -43 107 -42 132 0 14 1 39 2 55 2 69 -13 201 -25 215 -27 33 -45
121 -55 283 -6 92 -18 186 -26 209 -8 22 -14 53 -14 69 0 16 -6 46 -14 66 -13
34 -25 144 -29 260 -1 23 -8 48 -14 55 -8 7 -13 42 -13 94 0 46 -4 85 -9 88
-4 3 -18 33 -31 67 -19 52 -20 65 -9 85 8 16 9 27 2 36 -12 14 -24 92 -23 151
0 20 -7 62 -16 92 -10 36 -17 106 -19 196 -2 111 -6 144 -19 158 -11 12 -16
36 -16 73 0 30 -5 80 -12 109 -7 30 -11 79 -10 108 1 30 -3 72 -8 92 -6 21
-11 71 -12 111 0 40 -6 84 -13 98 -7 14 -15 59 -17 100 -3 49 -11 85 -23 103
-15 24 -16 33 -5 71 10 37 9 53 -4 99 -9 30 -15 66 -15 78 1 13 -6 58 -15 99
-9 41 -16 118 -16 170 0 52 -7 120 -15 150 -8 30 -15 83 -15 117 0 34 -7 83
-16 108 -9 28 -13 59 -9 76 4 16 2 51 -4 77 -20 92 -34 188 -40 294 -4 62 -13
113 -20 122 -8 9 -13 42 -13 78 -1 35 -6 69 -12 77 -6 8 -14 50 -18 95 -16
191 -25 263 -34 276 -5 8 -12 47 -15 85 -3 39 -11 84 -17 100 -6 17 -15 73
-20 125 -6 52 -19 140 -31 195 -12 55 -26 125 -32 155 -6 30 -17 84 -24 120
-8 36 -17 94 -21 130 -3 36 -13 77 -20 92 -8 15 -14 49 -14 75 0 26 -7 57 -15
67 -8 11 -15 31 -15 45 0 14 -7 58 -15 96 -9 39 -19 93 -24 120 -4 28 -13 60
-19 72 -7 12 -12 40 -12 62 0 22 -4 43 -10 46 -12 8 -42 109 -46 155 -1 19
-14 68 -28 107 -14 40 -26 86 -26 103 0 17 -8 47 -19 68 -10 20 -21 61 -24 91
-4 30 -11 59 -17 65 -5 5 -10 19 -10 31 -1 11 -9 38 -20 60 -11 22 -20 56 -20
75 0 19 -9 53 -20 75 -11 22 -19 49 -20 60 0 24 -29 103 -47 130 -7 11 -13 29
-13 40 0 12 -7 30 -15 41 -8 10 -15 32 -15 47 0 15 -9 46 -21 68 -11 23 -18
48 -15 56 3 8 -3 26 -13 39 -11 14 -23 39 -27 57 -3 18 -15 43 -25 56 -11 13
-19 36 -19 51 0 15 -7 33 -15 40 -8 7 -15 22 -15 34 0 12 -9 38 -20 59 -11 20
-20 44 -20 52 0 8 -11 36 -25 62 -23 46 -61 128 -84 183 -6 14 -15 32 -20 40
-24 42 -81 166 -81 176 0 14 -76 165 -94 184 -25 28 -44 65 -50 98 -3 19 -19
51 -36 72 -16 21 -30 41 -30 45 0 18 -47 103 -77 142 -18 23 -33 46 -33 52 0
16 -49 104 -72 128 -11 12 -30 46 -42 75 -22 53 -111 178 -128 178 -4 0 -8 6
-8 14 0 12 -74 134 -100 163 -6 7 -24 33 -41 57 -16 25 -37 47 -47 50 -10 3
-32 33 -50 66 -18 33 -42 66 -54 74 -11 8 -29 28 -39 45 -23 38 -96 132 -147
188 -20 22 -55 62 -77 87 -47 54 -279 289 -322 326 -16 14 -35 34 -43 45 -19
25 -102 94 -155 127 -22 14 -49 34 -60 45 -11 10 -40 30 -65 45 -25 14 -76 47
-115 72 -38 25 -73 46 -78 46 -6 0 -35 17 -66 37 -74 50 -322 153 -367 153
-11 0 -32 9 -49 20 -16 11 -40 20 -53 20 -13 0 -36 7 -51 14 -15 8 -52 18 -82
22 -30 3 -73 12 -97 20 -23 8 -64 14 -90 14 -26 0 -66 7 -89 15 -30 10 -88 15
-195 16 -163 0 -220 -5 -308 -28 -30 -8 -97 -22 -149 -30 -52 -8 -110 -21
-129 -29 -19 -8 -45 -14 -58 -14 -20 0 -75 -21 -136 -51 -10 -5 -23 -9 -30 -9
-17 0 -110 -49 -123 -64 -5 -7 -26 -18 -45 -25 -47 -19 -172 -113 -219 -167
-67 -77 -90 -52 -72 79 6 42 9 82 6 89 -3 7 -7 58 -10 113 -7 139 -21 254 -34
269 -6 7 -14 35 -17 62 -4 27 -13 57 -22 66 -10 12 -12 28 -8 52 5 24 2 45 -9
65 -8 17 -22 58 -29 92 -8 34 -19 65 -24 68 -5 3 -12 22 -16 42 -4 21 -13 42
-21 49 -7 6 -17 26 -21 43 -11 52 -37 102 -139 272 -16 27 -53 74 -81 105 -28
30 -53 60 -55 67 -8 23 -116 129 -162 158 -26 17 -47 33 -47 36 0 14 -95 72
-147 89 -95 30 -119 33 -136 15z m-9290 -10422 c4 -10 27 -44 53 -76 25 -33
50 -66 55 -75 6 -10 24 -35 41 -57 17 -22 33 -48 37 -58 4 -10 20 -23 36 -28
21 -7 32 -19 36 -40 10 -43 385 -414 432 -425 13 -4 23 -10 23 -14 0 -5 34
-30 75 -55 41 -26 75 -51 75 -55 0 -11 135 -90 154 -90 8 0 30 -13 48 -28 18
-16 52 -34 74 -40 23 -7 47 -19 54 -27 7 -8 21 -15 32 -15 10 0 36 -8 56 -19
20 -10 53 -25 72 -33 19 -8 51 -22 70 -31 19 -9 63 -21 98 -26 34 -6 68 -13
74 -17 7 -4 69 -14 138 -21 149 -15 249 -29 270 -37 24 -9 260 -14 265 -5 3 4
53 7 113 6 118 -1 253 9 292 22 14 5 43 13 65 19 101 27 185 54 190 63 4 5 20
9 36 9 16 0 46 7 66 15 89 37 107 7 44 -73 -43 -53 -81 -123 -81 -146 0 -8
-20 -38 -44 -66 -24 -29 -47 -63 -51 -77 -6 -27 -35 -72 -72 -113 -26 -29
-113 -196 -113 -216 0 -7 -13 -23 -29 -36 -16 -13 -37 -39 -46 -58 -10 -19
-32 -52 -49 -72 -18 -20 -44 -68 -59 -106 -15 -38 -43 -87 -62 -108 -19 -21
-35 -43 -35 -49 0 -7 -9 -22 -20 -35 -11 -13 -20 -27 -20 -33 0 -5 -11 -22
-25 -39 -14 -16 -25 -35 -25 -41 0 -7 -16 -32 -35 -55 -19 -24 -37 -54 -41
-65 -3 -12 -31 -59 -60 -104 -30 -44 -54 -85 -54 -90 0 -5 -14 -25 -31 -44
-17 -19 -38 -47 -46 -64 -7 -16 -24 -48 -37 -70 -13 -22 -34 -59 -46 -82 -12
-24 -35 -52 -50 -63 -18 -13 -37 -42 -50 -78 -12 -31 -29 -66 -39 -77 -10 -11
-35 -49 -56 -84 -35 -58 -37 -66 -27 -96 7 -17 12 -43 12 -58 0 -20 10 -33 40
-53 22 -15 40 -32 40 -39 0 -6 9 -20 20 -30 45 -40 171 21 226 110 37 58 88
125 96 125 4 0 8 8 8 19 0 10 9 30 20 44 11 14 20 34 20 44 0 11 14 32 31 49
17 16 44 54 60 84 16 30 38 69 49 85 11 17 29 49 40 73 11 24 33 55 50 69 35
29 60 72 60 102 0 11 20 43 45 71 25 28 45 57 45 64 0 7 11 25 25 40 14 15 25
33 25 40 0 7 9 21 20 31 11 10 20 24 20 31 0 7 13 28 28 46 15 18 47 72 70
119 23 47 56 98 72 114 17 16 33 44 36 64 5 24 24 54 59 91 29 31 56 70 59 87
4 17 18 41 32 53 13 13 24 28 24 34 1 30 105 160 124 153 7 -3 19 -33 26 -67
11 -50 18 -64 41 -75 17 -9 32 -29 40 -52 6 -21 22 -51 35 -66 15 -18 24 -41
24 -64 0 -20 9 -46 20 -60 11 -14 20 -39 20 -55 0 -19 11 -40 35 -64 19 -19
35 -41 35 -48 0 -8 7 -19 16 -27 12 -10 14 -23 9 -56 -4 -27 -2 -43 4 -43 6 0
18 -15 27 -32 9 -18 23 -37 30 -41 8 -4 14 -21 14 -37 0 -18 7 -33 18 -39 9
-5 23 -30 31 -55 7 -26 24 -63 37 -82 13 -19 27 -46 30 -60 4 -14 19 -49 35
-77 16 -29 29 -62 29 -75 0 -12 15 -38 34 -57 25 -25 37 -47 41 -79 5 -33 16
-53 39 -74 29 -26 34 -38 39 -93 8 -85 31 -148 67 -181 21 -18 30 -36 30 -57
0 -18 8 -35 19 -43 11 -8 25 -25 31 -39 14 -31 90 -52 151 -43 35 6 44 3 72
-24 18 -16 42 -33 55 -37 12 -3 28 -21 36 -38 27 -66 66 -72 66 -11 0 48 22
53 59 12 27 -29 32 -32 51 -20 14 9 26 10 40 2 48 -25 64 -12 72 60 2 16 10
26 23 28 30 6 45 22 45 47 0 12 7 28 15 35 27 22 18 95 -21 179 -55 114 -73
149 -124 236 -26 44 -51 94 -54 110 -4 17 -20 44 -35 60 -15 17 -33 48 -39 71
-7 23 -23 57 -36 76 -13 19 -29 51 -35 71 -7 20 -22 51 -34 69 -12 18 -28 44
-35 58 -6 14 -16 32 -21 40 -6 8 -16 31 -24 50 -8 19 -19 47 -25 63 -7 15 -15
27 -20 27 -5 0 -19 24 -33 52 -13 29 -39 75 -56 103 -18 27 -33 57 -33 66 0
10 -20 47 -44 83 -24 36 -47 81 -50 100 -4 18 -13 39 -20 45 -17 15 -73 127
-80 163 -3 14 -17 40 -31 56 -14 17 -25 38 -25 47 0 9 -9 29 -19 44 -11 15
-27 47 -37 72 -10 24 -25 54 -34 66 -10 12 -28 51 -40 85 -13 35 -29 70 -35
78 -7 8 -16 25 -19 36 -4 12 -15 29 -26 39 -11 10 -20 26 -20 35 0 10 -16 41
-36 70 -19 28 -42 70 -50 92 -8 23 -19 47 -25 54 -24 30 -5 56 73 98 42 22 84
49 95 58 32 29 69 32 123 9 27 -11 59 -21 72 -21 13 0 37 -9 53 -20 17 -11 45
-20 63 -20 18 0 58 -9 89 -20 34 -12 83 -20 120 -20 48 0 76 -6 114 -25 45
-23 61 -26 167 -25 131 0 135 0 247 0 44 0 117 0 162 0 45 0 90 4 100 9 10 5
52 14 93 20 41 7 79 16 84 21 6 6 26 10 45 10 41 0 117 26 146 50 11 9 39 22
63 29 24 7 64 23 89 37 25 13 52 24 59 24 7 0 22 13 33 29 23 32 137 111 197
136 21 9 46 23 56 32 28 25 153 22 177 -4 10 -11 32 -24 47 -30 16 -6 59 -22
97 -37 37 -14 74 -26 81 -26 7 0 19 -7 26 -15 7 -8 24 -15 39 -15 14 -1 44 -8
66 -16 46 -17 143 -36 195 -38 19 0 40 -4 45 -7 23 -15 186 -31 246 -25 35 3
105 9 154 12 54 4 96 12 105 20 9 7 31 14 50 15 19 2 46 8 60 14 14 7 42 15
62 19 21 4 41 12 45 19 11 17 220 97 252 97 8 0 31 16 52 35 22 19 48 35 59
35 11 0 25 9 32 21 7 11 34 32 61 45 26 13 47 29 47 34 0 6 9 10 20 10 11 0
28 12 37 28 10 15 61 69 113 120 107 104 129 112 173 62 15 -17 37 -30 50 -30
12 0 30 -8 39 -19 9 -10 36 -21 64 -26 26 -4 59 -15 72 -26 14 -10 32 -19 41
-19 10 0 21 -4 27 -9 38 -39 209 -103 263 -99 15 1 41 -4 59 -11 23 -10 39
-10 60 -3 16 5 35 6 43 2 20 -11 142 -6 204 8 91 21 160 34 190 35 17 1 45 10
64 20 33 19 129 47 157 47 20 0 96 -72 119 -112 10 -18 49 -60 87 -93 38 -33
88 -79 113 -103 34 -33 49 -42 65 -37 14 4 30 -2 51 -19 17 -14 41 -26 53 -26
12 0 37 -11 56 -25 19 -14 45 -25 59 -25 14 0 34 -9 46 -20 21 -19 53 -28 182
-50 28 -4 57 -11 64 -15 6 -4 48 -16 93 -27 257 -59 228 -56 589 -64 190 -4
275 -1 366 11 66 8 140 15 165 15 26 0 54 4 64 10 9 5 55 14 102 19 47 6 108
15 135 21 28 6 70 14 95 19 25 4 59 15 77 24 18 9 46 17 63 17 31 0 78 17 200
70 36 16 81 32 100 36 19 4 41 15 47 24 17 24 139 70 183 68 33 -1 56 5 142
40 37 15 61 13 134 -9 35 -10 49 -10 93 5 48 15 53 15 83 0 23 -12 47 -15 89
-11 43 4 61 1 70 -9 6 -8 22 -14 35 -14 43 0 117 -22 224 -66 58 -24 122 -46
142 -49 29 -4 42 -13 53 -35 17 -33 61 -60 99 -60 16 0 32 -10 46 -30 12 -16
26 -30 31 -30 15 0 89 -63 89 -76 0 -16 54 -64 72 -64 30 0 48 -12 48 -32 0
-30 32 -78 53 -78 11 0 22 -11 28 -30 6 -16 23 -36 37 -42 19 -10 28 -23 33
-50 3 -23 20 -53 42 -77 21 -23 37 -46 37 -53 0 -6 7 -18 15 -27 67 -73 82
-99 89 -146 4 -34 15 -59 34 -80 45 -48 62 -82 62 -122 0 -22 11 -59 26 -87
14 -27 28 -58 30 -70 2 -12 10 -64 18 -116 8 -52 20 -119 26 -147 8 -37 8 -59
0 -72 -15 -28 -12 -114 4 -146 18 -34 13 -113 -10 -158 -10 -17 -19 -63 -22
-102 -2 -38 -9 -76 -15 -83 -7 -9 -4 -25 8 -52 17 -38 17 -41 0 -60 -9 -10
-20 -40 -23 -65 -3 -35 -11 -50 -32 -65 -26 -18 -28 -27 -35 -110 -5 -60 -12
-96 -22 -106 -9 -8 -17 -29 -19 -46 -3 -20 -17 -43 -39 -64 -19 -17 -35 -41
-35 -52 0 -10 -9 -31 -20 -45 -15 -19 -20 -38 -18 -68 3 -39 1 -43 -26 -50
-39 -11 -64 -35 -71 -71 -4 -16 -13 -32 -20 -34 -13 -5 -32 -31 -120 -160 -26
-39 -222 -234 -235 -234 -6 0 -25 -24 -44 -52 -39 -61 -61 -83 -96 -93 -36
-11 -87 -47 -144 -99 -27 -26 -59 -46 -71 -46 -25 0 -45 -15 -69 -53 -10 -16
-33 -35 -52 -43 -19 -8 -43 -23 -54 -34 -11 -11 -26 -20 -34 -20 -7 0 -21 -11
-29 -24 -10 -14 -30 -26 -51 -30 -19 -4 -53 -22 -76 -41 -22 -18 -49 -37 -60
-40 -11 -4 -20 -15 -20 -25 0 -38 -11 -50 -49 -50 -57 0 -140 -28 -163 -55
-12 -14 -45 -34 -73 -44 -28 -11 -67 -29 -86 -40 -19 -12 -48 -28 -65 -36 -18
-8 -46 -32 -63 -54 -24 -30 -42 -42 -69 -46 -20 -4 -50 -13 -65 -22 -25 -13
-33 -13 -54 -2 -35 19 -56 2 -70 -57 -12 -52 -24 -89 -55 -166 -10 -26 -18
-63 -18 -84 0 -42 -18 -110 -36 -138 -7 -10 -10 -24 -7 -32 3 -7 -4 -25 -15
-39 -11 -14 -25 -49 -32 -78 -23 -105 -33 -143 -50 -177 -16 -32 -34 -106 -63
-268 -10 -49 -19 -69 -44 -92 -33 -31 -66 -114 -65 -161 0 -19 -7 -33 -24 -44
-19 -12 -24 -24 -24 -58 0 -56 -14 -101 -38 -125 -12 -12 -25 -37 -31 -57 -5
-20 -21 -51 -35 -69 -14 -18 -28 -46 -32 -62 -4 -16 -14 -38 -24 -49 -10 -11
-23 -30 -29 -42 -14 -27 -15 -100 -1 -108 18 -11 10 -24 -17 -27 -27 -3 -28
-5 -25 -50 3 -43 0 -48 -25 -62 -37 -19 -77 -62 -69 -75 9 -13 -24 -73 -75
-136 -21 -27 -42 -61 -45 -75 -6 -23 -29 -63 -76 -132 -10 -15 -25 -53 -33
-84 -8 -31 -16 -58 -17 -59 -51 -28 -58 -37 -58 -72 0 -26 -7 -45 -25 -63 -48
-48 -105 -117 -105 -127 0 -5 -18 -37 -40 -71 -22 -33 -40 -66 -40 -71 0 -5
-18 -31 -40 -56 -22 -25 -40 -53 -40 -60 0 -8 -9 -19 -20 -25 -11 -6 -28 -29
-36 -51 -9 -21 -29 -49 -45 -60 -16 -11 -29 -26 -29 -32 0 -7 -13 -39 -30 -72
-22 -45 -40 -66 -72 -86 -31 -18 -44 -33 -46 -52 -2 -16 -15 -35 -34 -48 -25
-18 -29 -26 -24 -53 8 -41 -31 -86 -73 -86 -21 0 -38 -10 -60 -35 -17 -20 -31
-42 -31 -49 0 -8 -18 -30 -41 -50 -22 -21 -46 -50 -52 -65 -7 -16 -35 -47 -64
-69 -28 -23 -54 -49 -57 -60 -3 -10 -38 -46 -76 -81 -38 -34 -73 -73 -76 -87
-3 -13 -13 -24 -21 -24 -8 0 -61 -47 -116 -104 -56 -57 -114 -110 -129 -117
-14 -8 -62 -48 -106 -89 -43 -41 -102 -93 -130 -115 -35 -28 -53 -50 -59 -75
-8 -31 -13 -35 -52 -42 -30 -5 -56 -19 -86 -47 -24 -22 -67 -52 -95 -66 -29
-15 -70 -44 -91 -66 -21 -21 -46 -39 -55 -39 -9 0 -35 -15 -58 -33 -23 -18
-66 -46 -96 -61 -30 -16 -72 -44 -94 -63 -21 -19 -53 -41 -70 -48 -18 -8 -38
-21 -45 -29 -7 -8 -34 -23 -59 -32 -26 -10 -63 -32 -82 -49 -20 -19 -55 -37
-82 -44 -26 -6 -64 -20 -83 -31 -20 -11 -42 -20 -49 -20 -8 0 -32 -15 -53 -33
-22 -18 -60 -39 -84 -47 -24 -8 -64 -27 -88 -42 -25 -15 -55 -28 -67 -28 -22
0 -109 -61 -116 -81 -2 -7 -14 -5 -34 7 -30 17 -31 17 -97 -14 -37 -18 -74
-32 -82 -32 -9 0 -20 -11 -25 -25 -9 -23 -14 -25 -48 -19 -29 5 -43 2 -56 -12
-11 -10 -38 -19 -69 -21 -52 -5 -81 -15 -169 -60 -33 -16 -60 -23 -90 -21 -38
3 -43 0 -46 -20 -5 -32 -26 -37 -59 -13 l-28 20 -115 -23 c-63 -13 -128 -29
-145 -34 -59 -21 -161 -32 -258 -29 -69 2 -103 0 -116 -10 -22 -15 -11 -14
-352 -12 -179 1 -268 -2 -294 -11 -27 -9 -40 -9 -48 -1 -6 6 -22 11 -37 11
-14 0 -46 7 -71 14 -26 8 -65 12 -88 9 -22 -3 -75 0 -118 6 -43 6 -107 13
-143 16 -36 3 -85 10 -110 16 -25 6 -67 12 -95 14 -27 2 -86 15 -130 30 -44
14 -107 28 -140 30 -114 9 -122 10 -136 21 -31 25 -113 53 -171 60 -34 4 -73
13 -87 20 -14 8 -31 14 -37 14 -6 0 -17 7 -24 15 -7 8 -25 15 -40 15 -15 0
-33 6 -39 14 -7 8 -27 18 -44 22 -18 3 -48 15 -67 25 -67 35 -148 67 -188 74
-22 3 -48 15 -58 26 -9 10 -24 19 -34 19 -9 0 -45 16 -80 35 -36 19 -72 35
-80 35 -8 0 -33 14 -54 30 -22 17 -45 30 -52 30 -7 0 -26 11 -42 25 -17 14
-42 25 -57 25 -17 0 -37 11 -56 31 -18 19 -42 32 -66 36 -21 3 -42 12 -46 20
-4 7 -33 29 -64 49 -41 26 -62 34 -82 29 -29 -6 -53 12 -75 58 -6 12 -21 23
-34 25 -12 2 -38 23 -58 48 -25 30 -49 47 -74 54 -21 6 -40 17 -43 24 -3 8
-27 27 -54 42 -26 15 -63 40 -81 56 -18 15 -37 28 -42 28 -6 0 -51 38 -101 84
-55 51 -102 86 -120 90 -16 3 -29 12 -29 19 0 21 -226 227 -249 227 -14 0 -47
36 -78 84 -14 21 -71 84 -127 140 -56 55 -137 143 -181 193 -43 51 -87 95 -97
99 -10 3 -18 9 -18 14 0 4 -26 37 -57 73 -104 117 -153 178 -153 189 0 6 -19
32 -42 58 -24 25 -50 60 -59 77 -9 17 -29 37 -45 44 -16 9 -32 27 -39 48 -6
18 -22 42 -35 53 -12 10 -33 41 -46 68 -15 33 -35 57 -59 71 -21 13 -35 29
-35 41 0 29 -45 99 -83 130 -25 20 -38 41 -51 86 -9 32 -25 67 -35 77 -11 9
-29 36 -40 60 -11 24 -29 46 -40 50 -13 4 -25 24 -36 61 -9 32 -24 59 -36 67
-21 12 -59 86 -72 139 -4 15 -30 48 -57 75 -34 32 -50 56 -50 73 0 14 -9 39
-20 55 -11 17 -20 37 -20 45 0 8 -19 50 -42 93 -24 44 -51 93 -60 110 -9 18
-29 62 -43 98 -14 36 -37 81 -50 99 -14 19 -25 42 -25 51 0 10 -4 21 -10 24
-5 3 -10 14 -10 23 0 9 -23 62 -50 117 -27 55 -50 106 -50 112 0 7 -11 20 -24
29 -20 12 -26 27 -31 72 -6 57 -55 182 -83 215 -9 10 -17 33 -18 52 -3 39 -35
136 -58 180 -9 17 -16 35 -16 41 0 6 -6 17 -14 23 -8 6 -15 37 -18 70 -3 43
-12 70 -36 107 -17 27 -34 69 -37 94 -7 53 -30 136 -56 202 -11 26 -19 55 -19
66 0 11 -6 32 -14 47 -8 16 -18 58 -22 94 -3 36 -13 78 -20 93 -8 15 -14 36
-14 46 0 11 -7 33 -15 48 -8 16 -15 45 -15 65 0 23 -7 42 -20 54 -15 14 -20
31 -20 74 0 31 -5 72 -11 91 -6 19 -14 66 -20 104 -5 38 -15 79 -23 91 -13 20
-23 73 -29 165 -2 25 -7 52 -12 60 -8 13 -16 60 -29 180 -12 110 -20 157 -29
175 -6 11 -14 49 -18 85 -19 162 -22 186 -29 195 -4 6 -11 82 -14 169 -5 97
-13 170 -20 185 -8 14 -14 64 -15 111 -1 47 -6 146 -12 220 -5 74 -9 146 -8
160 1 14 0 36 -1 50 -3 27 -4 236 -2 360 1 41 1 107 0 145 -1 39 2 106 6 150
4 44 7 125 5 180 -3 131 -1 257 6 380 4 55 7 147 8 205 2 67 8 114 17 130 9
16 15 68 17 145 2 66 10 147 18 180 7 33 17 112 21 175 3 63 9 120 13 125 7
12 11 48 15 138 2 45 8 73 19 85 11 12 17 36 17 68 0 27 9 81 20 119 11 39 20
86 20 105 0 61 50 107 67 63z m-1529 -1351 c2 -7 -3 -12 -12 -12 -9 0 -16 7
-16 16 0 17 22 14 28 -4z m527 -2 c10 -8 31 -11 62 -7 36 4 57 0 87 -15 26
-14 49 -18 71 -14 23 5 39 1 56 -12 22 -19 23 -21 11 -85 -13 -71 -10 -90 21
-125 20 -21 20 -24 5 -56 -14 -28 -17 -82 -18 -355 0 -176 -3 -327 -6 -335 -3
-8 0 -25 8 -38 16 -29 17 -38 26 -233 4 -88 10 -165 15 -172 4 -6 3 -22 -2
-35 -5 -14 -4 -33 1 -48 6 -14 14 -65 19 -114 7 -75 6 -94 -7 -114 -10 -15
-13 -32 -9 -46 15 -45 27 -134 29 -206 1 -41 8 -87 15 -102 11 -22 11 -31 2
-42 -10 -11 -9 -21 3 -43 10 -21 15 -61 14 -139 0 -76 5 -121 16 -149 18 -44
36 -163 29 -183 -8 -19 16 -105 35 -125 13 -15 14 -22 4 -37 -16 -27 -15 -65
3 -100 8 -16 12 -36 9 -44 -3 -9 4 -32 15 -52 13 -21 19 -44 16 -55 -9 -27 14
-208 30 -244 7 -16 16 -49 18 -73 3 -24 12 -51 21 -61 11 -12 16 -36 16 -72 0
-30 6 -63 14 -74 7 -11 16 -57 20 -101 6 -68 5 -82 -8 -87 -18 -7 -73 11 -131
42 -22 11 -47 21 -55 21 -9 0 -47 15 -86 34 -39 18 -85 37 -102 41 -17 3 -36
13 -43 21 -6 8 -18 14 -27 14 -29 0 -105 45 -130 77 -16 22 -33 33 -51 34 -14
0 -48 14 -76 30 -27 16 -62 34 -77 40 -15 6 -30 19 -33 30 -4 10 -16 24 -28
30 -12 7 -40 26 -62 44 -22 18 -49 35 -60 39 -12 3 -50 36 -85 72 -36 36 -75
69 -88 75 -12 5 -26 17 -30 28 -14 36 -105 123 -139 133 -27 7 -39 20 -62 66
-16 31 -38 65 -49 75 -11 10 -26 32 -32 48 -7 16 -23 32 -36 35 -15 4 -27 18
-34 40 -7 19 -29 55 -51 80 -21 25 -39 54 -39 64 0 23 -42 88 -69 106 -10 8
-22 30 -26 51 -6 36 -21 66 -70 147 -13 22 -21 45 -18 52 8 22 -37 153 -58
168 -17 12 -21 27 -24 90 -3 48 -12 94 -25 123 -12 28 -20 67 -20 102 0 31 -8
115 -17 186 -8 72 -18 175 -20 229 -4 86 -2 103 15 125 18 24 32 101 51 273 4
31 13 65 22 75 23 28 49 91 49 121 0 15 6 38 14 52 71 132 94 179 100 205 8
36 22 55 58 78 19 12 31 32 39 62 6 26 20 50 30 56 11 5 19 7 19 3 0 -3 14 6
31 20 17 14 37 26 45 26 7 0 19 9 26 20 7 11 21 20 31 20 10 0 38 16 61 35 24
19 57 38 75 41 17 4 36 15 42 26 8 15 18 19 37 15 16 -3 34 1 44 10 9 8 48 19
87 24 39 4 78 12 88 17 40 21 90 31 128 26 22 -3 51 -1 65 4 34 13 135 8 155
-8z m10985 -8750 c0 -5 -2 -10 -4 -10 -3 0 -8 5 -11 10 -3 6 -1 10 4 10 6 0
11 -4 11 -10z m-130 -93 c0 -8 -3 -17 -7 -20 -9 -9 -34 13 -27 24 8 14 34 11
34 -4z"/>
<path d="M19417 17978 c-3 -7 -22 -21 -43 -31 -22 -11 -50 -24 -63 -30 -14 -7
-29 -25 -34 -42 -6 -16 -25 -47 -43 -68 -24 -26 -34 -47 -34 -71 0 -18 -7 -39
-15 -46 -8 -6 -17 -22 -21 -33 -4 -12 -17 -34 -29 -49 -12 -15 -37 -62 -55
-105 -18 -43 -43 -91 -56 -106 -16 -19 -24 -41 -24 -67 0 -22 -6 -43 -13 -47
-21 -13 -67 -86 -67 -106 0 -10 -9 -30 -20 -44 -11 -14 -20 -32 -20 -40 0 -21
-69 -152 -107 -203 -24 -31 -32 -51 -28 -67 3 -15 -2 -30 -20 -47 -14 -14 -25
-36 -25 -50 0 -13 -16 -43 -35 -66 -19 -23 -35 -50 -35 -61 0 -10 -9 -36 -20
-56 -11 -21 -20 -43 -20 -50 0 -7 -14 -32 -31 -55 -37 -51 -69 -123 -69 -153
0 -12 -9 -30 -20 -40 -11 -10 -20 -26 -20 -35 0 -10 -7 -23 -15 -30 -19 -16
-55 -96 -55 -122 0 -10 -7 -21 -15 -24 -8 -3 -20 -25 -27 -48 -6 -22 -22 -52
-34 -66 -12 -14 -26 -38 -30 -55 -4 -16 -20 -51 -36 -78 -15 -26 -31 -60 -35
-75 -3 -15 -12 -31 -19 -37 -7 -5 -27 -45 -44 -88 -26 -63 -30 -80 -20 -92 10
-12 8 -22 -14 -54 -24 -34 -26 -43 -17 -82 5 -24 8 -55 8 -69 -2 -23 2 -25 52
-30 44 -5 58 -11 77 -35 21 -26 25 -28 49 -17 14 7 35 12 46 12 11 0 22 7 25
15 3 8 14 17 25 20 17 6 79 87 79 104 0 5 9 19 19 32 10 14 26 49 35 79 9 29
25 63 35 74 11 12 36 59 55 106 20 47 52 108 72 136 19 29 37 69 40 90 10 73
15 85 38 96 15 6 31 28 41 57 10 25 33 69 51 98 19 28 37 67 41 85 3 18 21 58
40 90 18 31 33 65 33 75 0 11 13 37 29 59 16 21 40 72 54 113 14 40 35 83 46
95 12 12 21 32 21 43 0 12 7 23 14 26 8 3 18 23 22 44 8 48 29 91 61 124 31
33 83 143 83 175 0 13 5 24 10 24 6 0 10 -10 10 -23 0 -28 26 -67 45 -67 14 0
35 -50 35 -86 0 -12 16 -46 35 -75 19 -30 35 -63 35 -74 0 -11 14 -33 31 -49
25 -24 30 -35 25 -58 -4 -22 0 -36 19 -56 14 -15 37 -51 52 -79 14 -29 30 -53
34 -53 20 0 50 -84 54 -152 4 -71 12 -88 46 -88 8 0 26 -11 38 -24 18 -19 22
-31 17 -51 -5 -21 1 -39 29 -80 19 -29 35 -62 35 -72 0 -15 2 -16 10 -3 9 13
11 13 19 1 6 -9 4 -22 -5 -35 -19 -31 -5 -79 27 -86 18 -4 25 -14 29 -40 4
-29 10 -36 33 -38 33 -4 47 -30 24 -44 -23 -12 -21 -40 3 -71 11 -14 20 -33
20 -42 0 -9 13 -21 29 -26 26 -9 30 -16 33 -52 2 -34 8 -44 31 -55 27 -13 36
-36 17 -47 -16 -10 -12 -33 11 -53 11 -11 24 -32 28 -48 6 -24 12 -28 34 -26
37 5 45 -22 18 -58 -11 -16 -21 -34 -21 -39 0 -14 35 -23 63 -16 14 4 34 2 45
-4 15 -8 24 -6 42 9 13 11 28 20 34 20 24 -1 60 -43 65 -77 4 -21 14 -40 26
-47 76 -43 90 -56 90 -89 0 -28 3 -32 24 -29 13 1 37 16 54 32 17 17 34 30 38
30 4 0 21 -11 37 -25 39 -33 63 -32 90 4 14 20 38 34 69 43 38 11 48 19 56 43
5 17 16 37 23 46 8 8 14 24 14 34 0 24 -30 105 -46 125 -6 8 -15 26 -19 40 -4
14 -14 36 -22 49 -12 18 -13 29 -4 48 14 30 -6 76 -51 125 -26 28 -29 37 -24
71 5 29 3 42 -8 51 -9 6 -26 31 -39 56 -13 25 -40 76 -60 113 -20 38 -37 77
-37 86 0 10 -11 28 -25 41 -13 13 -32 44 -42 69 -10 25 -34 72 -55 103 -21 31
-43 70 -50 85 -7 15 -20 39 -30 52 -10 13 -18 30 -18 39 0 8 -16 32 -35 53
-19 22 -35 49 -35 62 0 12 -7 31 -15 41 -8 11 -15 30 -15 42 0 14 -13 33 -35
50 -23 18 -38 40 -46 68 -6 22 -21 55 -34 72 -13 17 -27 44 -31 60 -4 16 -18
43 -31 60 -12 17 -23 36 -23 42 0 6 -11 23 -23 39 -13 15 -27 43 -30 61 -4 19
-16 46 -27 60 -41 52 -70 103 -70 121 0 9 -11 32 -25 51 -14 19 -25 42 -25 51
0 9 -16 41 -36 70 -20 30 -41 68 -47 84 -5 17 -17 39 -26 50 -33 39 -70 101
-94 155 -13 30 -31 61 -40 69 -10 7 -17 24 -17 36 0 13 -15 41 -32 63 -18 22
-40 53 -49 69 -9 17 -28 33 -44 37 -15 4 -38 20 -52 36 -26 32 -48 38 -56 18z"/>
<path d="M16798 16370 c-10 -6 -18 -17 -18 -24 0 -7 -16 -33 -35 -57 -19 -24
-35 -53 -35 -63 0 -11 -11 -31 -23 -45 -25 -27 -39 -59 -57 -128 -6 -23 -26
-60 -45 -83 -18 -22 -37 -50 -41 -63 -4 -12 -13 -26 -20 -32 -7 -5 -19 -30
-27 -55 -25 -74 -45 -116 -77 -163 -16 -25 -30 -51 -30 -57 0 -7 -16 -37 -35
-66 -29 -44 -34 -57 -25 -73 15 -29 12 -49 -10 -71 -11 -11 -20 -26 -20 -34 0
-7 -13 -19 -30 -26 -25 -10 -30 -18 -30 -44 0 -22 -8 -40 -25 -56 -14 -13 -25
-31 -25 -40 0 -10 -9 -29 -21 -43 -11 -15 -23 -44 -26 -64 -3 -21 -12 -45 -19
-53 -7 -9 -11 -25 -8 -36 4 -14 -3 -28 -21 -45 -29 -26 -95 -152 -95 -181 0
-24 -30 -99 -47 -119 -8 -9 -16 -29 -19 -45 -3 -16 -9 -33 -13 -39 -5 -5 -14
-28 -21 -50 -7 -22 -16 -44 -20 -50 -4 -5 -10 -21 -13 -35 -2 -14 -16 -56 -31
-95 -14 -38 -26 -81 -26 -96 0 -14 -7 -34 -15 -45 -8 -10 -15 -35 -15 -54 0
-19 -14 -59 -29 -88 -24 -45 -28 -59 -20 -85 15 -52 11 -85 -12 -101 -16 -11
-23 -28 -26 -63 -2 -26 -6 -70 -8 -98 -12 -118 -12 -170 2 -193 10 -16 15 -58
17 -125 1 -74 7 -111 19 -134 9 -18 17 -41 17 -51 0 -11 15 -39 33 -63 18 -24
41 -56 50 -71 10 -16 23 -28 30 -28 21 0 67 -54 67 -77 0 -25 53 -73 81 -73
10 0 27 -9 37 -20 9 -12 40 -28 69 -36 28 -8 57 -21 63 -29 7 -9 30 -15 52
-15 22 0 46 -7 54 -15 19 -19 164 -21 182 -3 6 6 30 11 52 10 22 -1 72 7 110
17 152 42 231 160 197 292 -15 56 -26 71 -82 104 -40 23 -54 25 -157 25 -79 1
-120 5 -138 15 -14 8 -43 14 -65 15 -60 0 -144 35 -187 77 -42 41 -88 130 -88
170 0 13 -7 37 -15 54 -13 25 -14 48 -7 152 6 67 10 136 10 152 0 38 10 81 27
120 23 53 45 141 45 181 0 21 11 62 25 89 13 28 25 55 25 61 0 17 56 182 79
237 12 27 21 63 21 81 0 19 9 43 20 56 11 13 20 32 20 42 0 10 6 31 14 46 7
15 16 41 19 59 3 17 20 54 37 81 16 27 30 58 30 68 0 10 9 34 20 52 11 18 20
41 20 51 0 10 6 24 14 30 7 6 21 40 30 75 10 36 29 79 42 97 13 18 24 38 24
43 0 24 49 128 68 146 12 12 23 38 27 69 4 28 16 62 27 76 10 13 22 41 25 62
4 20 12 48 20 63 7 14 13 32 13 41 0 9 9 26 20 39 11 13 20 29 20 37 0 7 20
55 44 106 48 100 86 204 86 237 0 12 7 34 15 50 12 24 13 35 2 67 -11 33 -17
39 -52 45 -22 4 -53 10 -70 13 -16 3 -38 0 -47 -5z"/>
<path d="M15770 11728 c-59 -26 -87 -36 -112 -42 -15 -3 -39 -22 -54 -41 -14
-19 -32 -35 -40 -35 -7 0 -23 -13 -36 -30 -12 -16 -29 -32 -38 -35 -19 -6 -71
-122 -82 -184 -4 -25 -12 -78 -18 -118 -5 -40 -14 -82 -20 -93 -7 -12 -7 -27
-2 -37 5 -10 12 -51 16 -91 3 -41 11 -82 16 -93 6 -10 22 -58 36 -106 14 -48
32 -95 40 -104 8 -8 14 -22 14 -31 0 -8 16 -36 35 -61 19 -25 35 -49 35 -53 0
-36 288 -353 321 -354 18 -1 103 -78 118 -107 6 -13 18 -23 27 -23 8 0 33 -9
55 -20 22 -12 45 -20 52 -18 37 7 109 -32 155 -84 19 -22 32 -28 65 -28 23 0
56 -8 72 -18 17 -11 59 -29 95 -41 36 -12 74 -31 85 -40 31 -29 114 -43 238
-42 45 0 65 -5 94 -24 42 -29 48 -30 87 -10 38 20 51 19 67 -5 13 -19 25 -21
149 -21 168 0 458 38 555 73 17 6 49 13 73 15 24 3 46 11 49 18 2 8 37 24 76
35 40 12 104 37 142 55 39 18 95 44 125 57 30 12 87 44 126 70 39 27 76 48 82
48 22 0 286 235 315 280 8 14 26 32 39 38 13 7 34 33 47 58 13 24 27 44 32 44
13 0 109 133 109 152 0 10 15 42 34 71 56 87 62 129 53 335 -3 85 -9 117 -21
131 -9 10 -16 29 -16 44 0 14 -4 28 -9 31 -8 5 -60 91 -100 163 -12 24 -84 98
-128 133 -73 59 -153 99 -194 100 -9 0 -22 6 -28 14 -16 19 -143 29 -286 23
-35 -1 -70 -9 -85 -18 -14 -9 -56 -22 -95 -28 -121 -20 -179 -32 -210 -43 -71
-25 -138 -42 -267 -69 -75 -15 -149 -34 -165 -42 -27 -14 -146 -28 -269 -32
-33 -1 -65 -4 -71 -8 -15 -9 -245 -7 -353 4 -221 21 -248 25 -261 35 -16 13
-141 54 -164 54 -9 0 -33 9 -53 20 -84 45 -193 90 -220 90 -16 0 -47 7 -68 16
-22 9 -74 18 -120 19 -45 2 -90 5 -101 8 -10 3 -29 1 -43 -5z"/>
</g>
</svg>
